HIERARCHY
ROOT Hips
{
	OFFSET 0.00000 0.00000 0.00000
	CHANNELS 6 Xposition Yposition Zposition Zrotation Yrotation Xrotation 
	JOINT LHipJoint
	{
		OFFSET 0 0 0
		CHANNELS 3 Zrotation Yrotation Xrotation
		JOINT LeftUpLeg
		{
			OFFSET 1.56857 -1.73443 1.15205
			CHANNELS 3 Zrotation Yrotation Xrotation
			JOINT LeftLeg
			{
				OFFSET 2.39362 -6.57643 0.00000
				CHANNELS 3 Zrotation Yrotation Xrotation
				JOINT LeftFoot
				{
					OFFSET 2.50952 -6.89485 0.00000
					CHANNELS 3 Zrotation Yrotation Xrotation
					JOINT LeftToeBase
					{
						OFFSET 0.17171 -0.47178 1.88682
						CHANNELS 3 Zrotation Yrotation Xrotation
						End Site
						{
							OFFSET 0.00000 -0.00000 0.98146
						}
					}
				}
			}
		}
	}
	JOINT RHipJoint
	{
		OFFSET 0 0 0
		CHANNELS 3 Zrotation Yrotation Xrotation
		JOINT RightUpLeg
		{
			OFFSET -1.28153 -1.73443 1.15205
			CHANNELS 3 Zrotation Yrotation Xrotation
			JOINT RightLeg
			{
				OFFSET -2.26861 -6.23296 0.00000
				CHANNELS 3 Zrotation Yrotation Xrotation
				JOINT RightFoot
				{
					OFFSET -2.54143 -6.98254 0.00000
					CHANNELS 3 Zrotation Yrotation Xrotation
					JOINT RightToeBase
					{
						OFFSET -0.23309 -0.64041 1.93119
						CHANNELS 3 Zrotation Yrotation Xrotation
						End Site
						{
							OFFSET -0.00000 -0.00000 1.02013
						}
					}
				}
			}
		}
	}
	JOINT LowerBack
	{
		OFFSET 0 0 0
		CHANNELS 3 Zrotation Yrotation Xrotation
		JOINT Spine
		{
			OFFSET -0.07096 2.10460 -0.27878
			CHANNELS 3 Zrotation Yrotation Xrotation
			JOINT Spine1
			{
				OFFSET -0.00826 2.13662 -0.08279
				CHANNELS 3 Zrotation Yrotation Xrotation
				JOINT Neck
				{
					OFFSET 0 0 0
					CHANNELS 3 Zrotation Yrotation Xrotation
					JOINT Neck1
					{
						OFFSET 0.03239 1.77799 0.24435
						CHANNELS 3 Zrotation Yrotation Xrotation
						JOINT Head
						{
							OFFSET 0.01026 1.74194 -0.49664
							CHANNELS 3 Zrotation Yrotation Xrotation
							End Site
							{
								OFFSET 0.00170 1.83057 -0.19653
							}
						}
					}
				}
				JOINT LeftShoulder
				{
					OFFSET 0 0 0
					CHANNELS 3 Zrotation Yrotation Xrotation
					JOINT LeftArm
					{
						OFFSET 3.19178 1.35907 -0.31412
						CHANNELS 3 Zrotation Yrotation Xrotation
						JOINT LeftForeArm
						{
							OFFSET 4.85247 -0.00000 -0.00000
							CHANNELS 3 Zrotation Yrotation Xrotation
							JOINT LeftHand
							{
								OFFSET 3.55584 -0.00000 0.00000
								CHANNELS 3 Zrotation Yrotation Xrotation
								JOINT LeftFingerBase
								{
									OFFSET 0 0 0
									CHANNELS 3 Zrotation Yrotation Xrotation
									JOINT LeftHandIndex1
									{
										OFFSET 0.69320 -0.00000 0.00000
										CHANNELS 3 Zrotation Yrotation Xrotation
										End Site
										{
											OFFSET 0.55888 -0.00000 0.00000
										}
									}
								}
								JOINT LThumb
								{
									OFFSET 0 0 0
									CHANNELS 3 Zrotation Yrotation Xrotation
									End Site
									{
										OFFSET 0.56741 -0.00000 0.56741
									}
								}
							}
						}
					}
				}
				JOINT RightShoulder
				{
					OFFSET 0 0 0
					CHANNELS 3 Zrotation Yrotation Xrotation
					JOINT RightArm
					{
						OFFSET -3.28999 1.24191 -0.26899
						CHANNELS 3 Zrotation Yrotation Xrotation
						JOINT RightForeArm
						{
							OFFSET -4.64462 -0.00000 0.00000
							CHANNELS 3 Zrotation Yrotation Xrotation
							JOINT RightHand
							{
								OFFSET -3.40703 -0.00000 0.00000
								CHANNELS 3 Zrotation Yrotation Xrotation
								JOINT RightFingerBase
								{
									OFFSET 0 0 0
									CHANNELS 3 Zrotation Yrotation Xrotation
									JOINT RightHandIndex1
									{
										OFFSET -0.61958 -0.00000 0.00000
										CHANNELS 3 Zrotation Yrotation Xrotation
										End Site
										{
											OFFSET -0.49952 -0.00000 0.00000
										}
									}
								}
								JOINT RThumb
								{
									OFFSET 0 0 0
									CHANNELS 3 Zrotation Yrotation Xrotation
									End Site
									{
										OFFSET -0.50715 -0.00000 0.50715
									}
								}
							}
						}
					}
				}
			}
		}
	}
}
MOTION
Frames: 7
Frame Time: .0083333
-30.6343 17.0597 0.6793 0 0 0 0 0 0 -21 0 0 0 0 0 0 0 0 0 0 0 0 0 0 21 0 0 0 0 0 0 0 0 0 0 0 0 0 0 0 0 0 0 0 0 0 0 -16 0 0 21 0 0 11 0 0 0 -8 0 0 0 0 0 0 0 0 0 0 0 0 0 0 0 0 0 0 0 0 8 0 0 0 0 0 0 0 0 0 0 0 0 0 0 0 0 0
-30.6343 17.0597 0.6793 52.3028 85.7248 52.5015 0.0000 0.0000 0.0000 -18.8946 2.6046 9.9749 0.0166 -0.8322 -2.2873 0.4354 6.9463 -16.9122 0.0011 -0.2115 -0.5812 0.0000 0.0000 0.0000 9.6875 -6.5093 5.6854 -0.0319 -1.1534 3.1711 -0.8161 -0.1972 -17.1472 -0.0535 -1.4929 4.1061 -10.8403 1.6056 -1.4656 3.4151 2.4904 3.8834 9.8979 0.8045 4.3380 4.3359 5.6365 -18.9447 -9.3379 10.5773 28.9324 -2.5008 4.1119 13.7736 0.0000 0.0000 0.0000 -94.7563 -5.3040 35.6542 11.2458 -18.6641 -1.8538 -0.0000 -0.0000 19.3249 18.9646 -29.2971 -9.5452 -7.1250 0.0000 -0.0000 -6.8795 -0.5064 6.9904 0.0000 0.0000 0.0000 80.4291 -4.4815 33.9025 -19.3660 29.8709 -5.2119 0.0000 -0.0000 -7.5615 -17.4490 -30.0224 8.9375 7.1250 -0.0000 -0.0000 16.0586 -60.4654 -6.1488
-30.6337 17.0532 0.6905 49.6257 85.8206 49.9667 0.0000 0.0000 0.0000 -18.5633 2.6794 9.8091 0.0170 -0.8414 -2.3124 0.2601 7.4808 -15.1354 0.1265 -2.2923 -6.3142 0.0000 0.0000 0.0000 10.0985 -6.1697 5.6354 -0.0317 -1.1498 3.1610 -0.8212 -0.4589 -17.2975 -0.0425 -1.3304 3.6583 -6.4101 2.0683 0.9178 0.1781 2.7828 2.0339 3.7718 1.3106 1.2735 7.0103 5.6269 -17.8542 -7.1676 9.1055 30.0387 -2.4056 4.0739 13.8679 -0.0000 0.0000 0.0000 -88.8746 -2.2806 38.1775 11.8235 -19.5394 -2.0429 -0.0000 -0.0000 17.2233 18.2792 -28.8895 -9.0670 -7.1250 0.0000 -0.0000 -7.2346 0.0297 7.2892 -0.0000 0.0000 0.0000 86.7393 -6.2326 29.7065 -18.6625 28.9972 -4.8662 0.0000 -0.0000 -0.6134 -12.3225 -31.6407 6.5373 7.1250 -0.0000 -0.0000 22.8061 -60.7572 -9.0293
-30.6307 17.0511 0.7004 49.1058 85.8198 49.4802 0.0000 0.0000 0.0000 -18.4219 2.8654 9.7297 0.0170 -0.8418 -2.3137 0.1875 7.6148 -14.2154 0.1921 -2.8227 -7.7855 0.0000 0.0000 0.0000 10.2161 -6.0061 5.6790 -0.0314 -1.1443 3.1459 -0.8307 -0.5590 -17.4341 -0.0378 -1.2544 3.4489 -5.8461 2.2086 1.8412 -0.3073 2.8776 1.2755 2.8973 1.4185 0.0115 7.5293 5.5175 -17.3395 -6.9437 8.8231 30.4960 -2.4711 4.0680 13.9417 0.0000 -0.0000 0.0000 -87.9746 -1.0460 38.5700 11.9533 -19.7346 -2.0865 -0.0000 -0.0000 17.1239 18.1704 -28.9942 -9.0395 -7.1250 0.0000 -0.0000 -7.3094 -0.0570 7.3769 0.0000 -0.0000 0.0000 87.9953 -6.4071 27.4933 -17.7864 27.8828 -4.4489 0.0000 0.0000 2.2983 -10.5314 -31.6670 5.5743 7.1250 -0.0000 -0.0000 24.6992 -60.3552 -9.5930
-30.6305 17.0552 0.7024 50.2302 85.7478 50.4973 0.0000 0.0000 0.0000 -18.5359 2.9275 9.8136 0.0164 -0.8260 -2.2700 0.2021 7.5411 -14.3573 0.1811 -2.7410 -7.5584 0.0000 0.0000 0.0000 10.0880 -5.9973 5.8398 -0.0304 -1.1248 3.0922 -0.8245 -0.5862 -17.3807 -0.0447 -1.3639 3.7507 -5.9889 2.2339 2.0860 -0.3401 2.8897 1.2127 2.9309 1.4313 -0.1965 7.6874 5.5624 -17.2984 -6.9917 8.8713 30.5598 -2.5099 4.1038 13.9771 0.0000 -0.0000 0.0000 -87.9442 -0.8922 38.4797 11.9491 -19.7283 -2.0851 -0.0000 -0.0000 17.2952 18.2699 -29.1077 -9.1236 -7.1250 0.0000 -0.0000 -7.2634 -0.1895 7.3466 0.0000 -0.0000 0.0000 88.0058 -6.5431 27.6370 -17.8091 27.9120 -4.4595 0.0000 0.0000 2.1550 -10.7682 -31.6229 5.6946 7.1250 -0.0000 -0.0000 24.4157 -60.3715 -9.4845
-30.6283 17.0538 0.7022 53.0085 85.4499 53.2172 0.0000 0.0000 0.0000 -19.0052 2.9590 9.8722 0.0162 -0.8217 -2.2585 0.2196 7.4675 -14.5396 0.1513 -2.5065 -6.9077 0.0000 0.0000 0.0000 9.5390 -6.2357 5.8605 -0.0296 -1.1112 3.0548 -0.8090 -0.4385 -17.1614 -0.0411 -1.3077 3.5960 -6.3553 2.2699 2.2266 -0.4569 2.9190 1.1442 3.0059 1.4519 -0.3599 7.7893 5.6965 -17.1416 -6.9087 9.0212 30.5246 -2.4689 4.1967 13.9430 0.0000 -0.0000 0.0000 -87.8783 -0.7214 38.5366 11.9696 -19.7590 -2.0920 -0.0000 -0.0000 17.2733 18.2866 -29.0360 -9.1121 -7.1250 0.0000 -0.0000 -7.2460 -0.1198 7.3199 0.0000 -0.0000 0.0000 88.0402 -6.6536 27.6023 -17.8278 27.9362 -4.4683 0.0000 0.0000 2.0665 -11.0005 -31.7285 5.8369 7.1250 -0.0000 -0.0000 24.2654 -60.5214 -9.5091
-30.6219 17.0483 0.7001 57.1186 84.9696 57.2339 0.0000 0.0000 0.0000 -19.9006 2.6517 10.2334 0.0197 -0.9050 -2.4876 0.1887 7.9333 -14.5861 0.1947 -2.8416 -7.8381 0.0000 0.0000 0.0000 8.6737 -6.5628 5.9000 -0.0298 -1.1139 3.0623 -0.7994 -0.2142 -16.9780 -0.0322 -1.1585 3.1850 -6.7355 2.3602 2.9385 -0.7578 2.9499 0.6318 2.8618 1.5069 -1.2941 7.7429 5.5664 -16.6624 -6.5033 8.8029 30.8131 -2.3504 4.1753 13.9149 -0.0000 -0.0000 0.0000 -87.6076 0.2045 38.7516 12.0472 -19.8754 -2.1183 -0.0000 -0.0000 17.1895 18.4966 -28.7893 -9.1521 -7.1250 0.0000 -0.0000 -7.0967 0.0929 7.1402 -0.0000 -0.0000 0.0000 88.2975 -7.5372 27.2610 -17.8910 28.0174 -4.4979 0.0000 0.0000 1.9778 -11.2431 -31.4815 5.9267 7.1250 -0.0000 -0.0000 23.8008 -60.3559 -9.2202
